<svg xmlns="http://www.w3.org/2000/svg" viewBox="0 0 64 64" shape-rendering="crispEdges">
<style>
  /* === STATE VISIBILITY === */
  .baz-idle { visibility: visible; }
  .baz-talk { visibility: hidden; }
  .baz-content { visibility: hidden; }

  /* === IRREGULAR EYE BLINK (idle only) ===
     Two different durations so eyes occasionally desync */
  @keyframes blinkL {
    0%    { opacity: 1; }
    72%   { opacity: 1; }
    72.8% { opacity: 0; }
    76.4% { opacity: 0; }
    77.2% { opacity: 1; }
    100%  { opacity: 1; }
  }
  @keyframes blinkR {
    0%    { opacity: 1; }
    41%   { opacity: 1; }
    41.8% { opacity: 0; }
    45%   { opacity: 0; }
    45.8% { opacity: 1; }
    91%   { opacity: 1; }
    91.8% { opacity: 0; }
    94.5% { opacity: 0; }
    95.3% { opacity: 1; }
    100%  { opacity: 1; }
  }
  .blink-l { animation: blinkL 4.4s steps(1) infinite; }
  .blink-r { animation: blinkR 4.1s steps(1) infinite; }

  /* Closed-eye lids (shown only during blink) */
  @keyframes blinkLidL {
    0%    { opacity: 0; }
    72%   { opacity: 0; }
    72.8% { opacity: 1; }
    76.4% { opacity: 1; }
    77.2% { opacity: 0; }
    100%  { opacity: 0; }
  }
  @keyframes blinkLidR {
    0%    { opacity: 0; }
    41%   { opacity: 0; }
    41.8% { opacity: 1; }
    45%   { opacity: 1; }
    45.8% { opacity: 0; }
    91%   { opacity: 0; }
    91.8% { opacity: 1; }
    94.5% { opacity: 1; }
    95.3% { opacity: 0; }
    100%  { opacity: 0; }
  }
  .lid-l { opacity: 0; animation: blinkLidL 4.4s steps(1) infinite; }
  .lid-r { opacity: 0; animation: blinkLidR 4.1s steps(1) infinite; }

  /* === ANTENNA SPARKLE (irregular pulse) === */
  @keyframes antennaPulse {
    0%    { opacity: 1; }
    35%   { opacity: 1; }
    35.5% { opacity: 0.15; }
    43%   { opacity: 0.15; }
    43.5% { opacity: 1; }
    78%   { opacity: 1; }
    78.5% { opacity: 0.15; }
    82%   { opacity: 0.15; }
    82.5% { opacity: 1; }
    100%  { opacity: 1; }
  }
  .antenna-glow {
    animation: antennaPulse 2.6s steps(1) infinite;
  }

  /* === CONTENT sparkle float === */
  @keyframes sparkleFloat {
    0%   { opacity: 0; }
    20%  { opacity: 1; }
    60%  { opacity: 1; }
    80%  { opacity: 0; }
    100% { opacity: 0; }
  }
  .sparkle-a { opacity: 0; animation: sparkleFloat 1.8s steps(1) infinite 0s; }
  .sparkle-b { opacity: 0; animation: sparkleFloat 2.1s steps(1) infinite 0.7s; }
  .sparkle-c { opacity: 0; animation: sparkleFloat 1.5s steps(1) infinite 1.2s; }
</style>

<!-- =============================== -->
<!-- === IDLE STATE ================= -->
<!-- =============================== -->
<g class="baz-idle">

  <!-- ANTENNA: sparkle tip (cross at y=0, centered on x=8) -->
  <g class="antenna-glow">
    <rect x="28" y="0"  width="4" height="4" fill="#E0F8D0"/>
    <rect x="32" y="0"  width="4" height="4" fill="#E0F8D0"/>
    <rect x="36" y="0"  width="4" height="4" fill="#E0F8D0"/>
    <rect x="32" y="4"  width="4" height="4" fill="#E0F8D0"/>
  </g>
  <!-- ANTENNA: stalk -->
  <rect x="32" y="4"  width="4" height="4" fill="#306230"/>
  <rect x="32" y="8"  width="4" height="4" fill="#0F380F"/>
  <rect x="32" y="12" width="4" height="4" fill="#0F380F"/>

  <!-- BODY outline + fill -->
  <!-- Row y=3 (top edge) -->
  <rect x="20" y="12" width="4" height="4" fill="#0F380F"/>
  <rect x="24" y="12" width="4" height="4" fill="#0F380F"/>
  <rect x="28" y="12" width="4" height="4" fill="#0F380F"/>
  <rect x="36" y="12" width="4" height="4" fill="#0F380F"/>
  <rect x="40" y="12" width="4" height="4" fill="#0F380F"/>

  <!-- Row y=4 -->
  <rect x="16" y="16" width="4" height="4" fill="#0F380F"/>
  <rect x="20" y="16" width="4" height="4" fill="#8BAC0F"/>
  <rect x="24" y="16" width="4" height="4" fill="#8BAC0F"/>
  <rect x="28" y="16" width="4" height="4" fill="#E0F8D0"/>
  <rect x="32" y="16" width="4" height="4" fill="#8BAC0F"/>
  <rect x="36" y="16" width="4" height="4" fill="#8BAC0F"/>
  <rect x="40" y="16" width="4" height="4" fill="#306230"/>
  <rect x="44" y="16" width="4" height="4" fill="#0F380F"/>

  <!-- Row y=5 -->
  <rect x="12" y="20" width="4" height="4" fill="#0F380F"/>
  <rect x="16" y="20" width="4" height="4" fill="#8BAC0F"/>
  <rect x="20" y="20" width="4" height="4" fill="#8BAC0F"/>
  <rect x="24" y="20" width="4" height="4" fill="#8BAC0F"/>
  <rect x="28" y="20" width="4" height="4" fill="#8BAC0F"/>
  <rect x="32" y="20" width="4" height="4" fill="#8BAC0F"/>
  <rect x="36" y="20" width="4" height="4" fill="#8BAC0F"/>
  <rect x="40" y="20" width="4" height="4" fill="#306230"/>
  <rect x="44" y="20" width="4" height="4" fill="#306230"/>
  <rect x="48" y="20" width="4" height="4" fill="#0F380F"/>

  <!-- Row y=6 (eyes top) -->
  <rect x="12" y="24" width="4" height="4" fill="#0F380F"/>
  <rect x="16" y="24" width="4" height="4" fill="#8BAC0F"/>
  <rect x="20" y="24" width="4" height="4" fill="#0F380F"/>
  <rect x="24" y="24" width="4" height="4" fill="#0F380F"/>
  <rect x="28" y="24" width="4" height="4" fill="#8BAC0F"/>
  <rect x="32" y="24" width="4" height="4" fill="#8BAC0F"/>
  <rect x="36" y="24" width="4" height="4" fill="#0F380F"/>
  <rect x="40" y="24" width="4" height="4" fill="#0F380F"/>
  <rect x="44" y="24" width="4" height="4" fill="#306230"/>
  <rect x="48" y="24" width="4" height="4" fill="#0F380F"/>

  <!-- Row y=7 (eyes bottom) -->
  <rect x="12" y="28" width="4" height="4" fill="#0F380F"/>
  <rect x="16" y="28" width="4" height="4" fill="#8BAC0F"/>
  <rect x="20" y="28" width="4" height="4" fill="#0F380F"/>
  <rect x="24" y="28" width="4" height="4" fill="#0F380F"/>
  <rect x="28" y="28" width="4" height="4" fill="#8BAC0F"/>
  <rect x="32" y="28" width="4" height="4" fill="#8BAC0F"/>
  <rect x="36" y="28" width="4" height="4" fill="#0F380F"/>
  <rect x="40" y="28" width="4" height="4" fill="#0F380F"/>
  <rect x="44" y="28" width="4" height="4" fill="#306230"/>
  <rect x="48" y="28" width="4" height="4" fill="#0F380F"/>

  <!-- Eye highlights (upper-left of each 2x2 eye) — blink-animated -->
  <g class="blink-l">
    <rect x="20" y="24" width="4" height="4" fill="#E0F8D0"/>
  </g>
  <g class="blink-r">
    <rect x="36" y="24" width="4" height="4" fill="#E0F8D0"/>
  </g>
  <!-- Closed-eye lids: during blink, top row becomes body color, bottom stays dark -->
  <g class="lid-l">
    <rect x="20" y="24" width="4" height="4" fill="#8BAC0F"/>
    <rect x="24" y="24" width="4" height="4" fill="#8BAC0F"/>
    <rect x="20" y="28" width="4" height="4" fill="#0F380F"/>
    <rect x="24" y="28" width="4" height="4" fill="#0F380F"/>
  </g>
  <g class="lid-r">
    <rect x="36" y="24" width="4" height="4" fill="#8BAC0F"/>
    <rect x="40" y="24" width="4" height="4" fill="#8BAC0F"/>
    <rect x="36" y="28" width="4" height="4" fill="#0F380F"/>
    <rect x="40" y="28" width="4" height="4" fill="#0F380F"/>
  </g>

  <!-- Row y=8 -->
  <rect x="12" y="32" width="4" height="4" fill="#0F380F"/>
  <rect x="16" y="32" width="4" height="4" fill="#8BAC0F"/>
  <rect x="20" y="32" width="4" height="4" fill="#8BAC0F"/>
  <rect x="24" y="32" width="4" height="4" fill="#8BAC0F"/>
  <rect x="28" y="32" width="4" height="4" fill="#8BAC0F"/>
  <rect x="32" y="32" width="4" height="4" fill="#8BAC0F"/>
  <rect x="36" y="32" width="4" height="4" fill="#8BAC0F"/>
  <rect x="40" y="32" width="4" height="4" fill="#306230"/>
  <rect x="44" y="32" width="4" height="4" fill="#306230"/>
  <rect x="48" y="32" width="4" height="4" fill="#0F380F"/>

  <!-- Row y=9 (smile) -->
  <rect x="12" y="36" width="4" height="4" fill="#0F380F"/>
  <rect x="16" y="36" width="4" height="4" fill="#8BAC0F"/>
  <rect x="20" y="36" width="4" height="4" fill="#8BAC0F"/>
  <rect x="24" y="36" width="4" height="4" fill="#0F380F"/>
  <rect x="28" y="36" width="4" height="4" fill="#8BAC0F"/>
  <rect x="32" y="36" width="4" height="4" fill="#8BAC0F"/>
  <rect x="36" y="36" width="4" height="4" fill="#0F380F"/>
  <rect x="40" y="36" width="4" height="4" fill="#306230"/>
  <rect x="44" y="36" width="4" height="4" fill="#306230"/>
  <rect x="48" y="36" width="4" height="4" fill="#0F380F"/>

  <!-- Row y=10 -->
  <rect x="16" y="40" width="4" height="4" fill="#0F380F"/>
  <rect x="20" y="40" width="4" height="4" fill="#8BAC0F"/>
  <rect x="24" y="40" width="4" height="4" fill="#8BAC0F"/>
  <rect x="28" y="40" width="4" height="4" fill="#0F380F"/>
  <rect x="32" y="40" width="4" height="4" fill="#0F380F"/>
  <rect x="36" y="40" width="4" height="4" fill="#306230"/>
  <rect x="40" y="40" width="4" height="4" fill="#306230"/>
  <rect x="44" y="40" width="4" height="4" fill="#0F380F"/>

  <!-- Row y=11 (bottom edge) -->
  <rect x="20" y="44" width="4" height="4" fill="#0F380F"/>
  <rect x="24" y="44" width="4" height="4" fill="#0F380F"/>
  <rect x="28" y="44" width="4" height="4" fill="#0F380F"/>
  <rect x="32" y="44" width="4" height="4" fill="#0F380F"/>
  <rect x="36" y="44" width="4" height="4" fill="#0F380F"/>
  <rect x="40" y="44" width="4" height="4" fill="#0F380F"/>

  <!-- ARMS -->
  <rect x="8"  y="28" width="4" height="4" fill="#0F380F"/>
  <rect x="8"  y="32" width="4" height="4" fill="#8BAC0F"/>
  <rect x="52" y="28" width="4" height="4" fill="#0F380F"/>
  <rect x="52" y="32" width="4" height="4" fill="#306230"/>

  <!-- FEET -->
  <rect x="20" y="48" width="8" height="4" fill="#0F380F"/>
  <rect x="36" y="48" width="8" height="4" fill="#0F380F"/>

</g>


<!-- =============================== -->
<!-- === TALK STATE ================= -->
<!-- =============================== -->
<g class="baz-talk">

  <!-- ANTENNA: sparkle (always bright, wider glow) -->
  <rect x="24" y="0"  width="4" height="4" fill="#8BAC0F"/>
  <rect x="28" y="0"  width="4" height="4" fill="#E0F8D0"/>
  <rect x="32" y="0"  width="4" height="4" fill="#E0F8D0"/>
  <rect x="36" y="0"  width="4" height="4" fill="#E0F8D0"/>
  <rect x="40" y="0"  width="4" height="4" fill="#8BAC0F"/>
  <rect x="32" y="4"  width="4" height="4" fill="#E0F8D0"/>
  <!-- stalk -->
  <rect x="32" y="8"  width="4" height="4" fill="#0F380F"/>
  <rect x="32" y="12" width="4" height="4" fill="#0F380F"/>

  <!-- BODY (identical shape to idle) -->
  <!-- Row y=3 -->
  <rect x="20" y="12" width="4" height="4" fill="#0F380F"/>
  <rect x="24" y="12" width="4" height="4" fill="#0F380F"/>
  <rect x="28" y="12" width="4" height="4" fill="#0F380F"/>
  <rect x="36" y="12" width="4" height="4" fill="#0F380F"/>
  <rect x="40" y="12" width="4" height="4" fill="#0F380F"/>

  <!-- Row y=4 -->
  <rect x="16" y="16" width="4" height="4" fill="#0F380F"/>
  <rect x="20" y="16" width="4" height="4" fill="#8BAC0F"/>
  <rect x="24" y="16" width="4" height="4" fill="#8BAC0F"/>
  <rect x="28" y="16" width="4" height="4" fill="#E0F8D0"/>
  <rect x="32" y="16" width="4" height="4" fill="#8BAC0F"/>
  <rect x="36" y="16" width="4" height="4" fill="#8BAC0F"/>
  <rect x="40" y="16" width="4" height="4" fill="#306230"/>
  <rect x="44" y="16" width="4" height="4" fill="#0F380F"/>

  <!-- Row y=5 -->
  <rect x="12" y="20" width="4" height="4" fill="#0F380F"/>
  <rect x="16" y="20" width="4" height="4" fill="#8BAC0F"/>
  <rect x="20" y="20" width="4" height="4" fill="#8BAC0F"/>
  <rect x="24" y="20" width="4" height="4" fill="#8BAC0F"/>
  <rect x="28" y="20" width="4" height="4" fill="#8BAC0F"/>
  <rect x="32" y="20" width="4" height="4" fill="#8BAC0F"/>
  <rect x="36" y="20" width="4" height="4" fill="#8BAC0F"/>
  <rect x="40" y="20" width="4" height="4" fill="#306230"/>
  <rect x="44" y="20" width="4" height="4" fill="#306230"/>
  <rect x="48" y="20" width="4" height="4" fill="#0F380F"/>

  <!-- Row y=6 (eyes top) -->
  <rect x="12" y="24" width="4" height="4" fill="#0F380F"/>
  <rect x="16" y="24" width="4" height="4" fill="#8BAC0F"/>
  <rect x="20" y="24" width="4" height="4" fill="#0F380F"/>
  <rect x="24" y="24" width="4" height="4" fill="#0F380F"/>
  <rect x="28" y="24" width="4" height="4" fill="#8BAC0F"/>
  <rect x="32" y="24" width="4" height="4" fill="#8BAC0F"/>
  <rect x="36" y="24" width="4" height="4" fill="#0F380F"/>
  <rect x="40" y="24" width="4" height="4" fill="#0F380F"/>
  <rect x="44" y="24" width="4" height="4" fill="#306230"/>
  <rect x="48" y="24" width="4" height="4" fill="#0F380F"/>
  <!-- Eye highlights (static in talk mode) -->
  <rect x="20" y="24" width="4" height="4" fill="#E0F8D0"/>
  <rect x="36" y="24" width="4" height="4" fill="#E0F8D0"/>

  <!-- Row y=7 (eyes bottom) -->
  <rect x="12" y="28" width="4" height="4" fill="#0F380F"/>
  <rect x="16" y="28" width="4" height="4" fill="#8BAC0F"/>
  <rect x="20" y="28" width="4" height="4" fill="#0F380F"/>
  <rect x="24" y="28" width="4" height="4" fill="#0F380F"/>
  <rect x="28" y="28" width="4" height="4" fill="#8BAC0F"/>
  <rect x="32" y="28" width="4" height="4" fill="#8BAC0F"/>
  <rect x="36" y="28" width="4" height="4" fill="#0F380F"/>
  <rect x="40" y="28" width="4" height="4" fill="#0F380F"/>
  <rect x="44" y="28" width="4" height="4" fill="#306230"/>
  <rect x="48" y="28" width="4" height="4" fill="#0F380F"/>

  <!-- Row y=8 -->
  <rect x="12" y="32" width="4" height="4" fill="#0F380F"/>
  <rect x="16" y="32" width="4" height="4" fill="#8BAC0F"/>
  <rect x="20" y="32" width="4" height="4" fill="#8BAC0F"/>
  <rect x="24" y="32" width="4" height="4" fill="#8BAC0F"/>
  <rect x="28" y="32" width="4" height="4" fill="#8BAC0F"/>
  <rect x="32" y="32" width="4" height="4" fill="#8BAC0F"/>
  <rect x="36" y="32" width="4" height="4" fill="#8BAC0F"/>
  <rect x="40" y="32" width="4" height="4" fill="#306230"/>
  <rect x="44" y="32" width="4" height="4" fill="#306230"/>
  <rect x="48" y="32" width="4" height="4" fill="#0F380F"/>

  <!-- Row y=9 (open mouth - 3px wide) -->
  <rect x="12" y="36" width="4" height="4" fill="#0F380F"/>
  <rect x="16" y="36" width="4" height="4" fill="#8BAC0F"/>
  <rect x="20" y="36" width="4" height="4" fill="#8BAC0F"/>
  <rect x="24" y="36" width="4" height="4" fill="#0F380F"/>
  <rect x="28" y="36" width="4" height="4" fill="#0F380F"/>
  <rect x="32" y="36" width="4" height="4" fill="#0F380F"/>
  <rect x="36" y="36" width="4" height="4" fill="#8BAC0F"/>
  <rect x="40" y="36" width="4" height="4" fill="#306230"/>
  <rect x="44" y="36" width="4" height="4" fill="#306230"/>
  <rect x="48" y="36" width="4" height="4" fill="#0F380F"/>

  <!-- Row y=10 (mouth bottom) -->
  <rect x="16" y="40" width="4" height="4" fill="#0F380F"/>
  <rect x="20" y="40" width="4" height="4" fill="#8BAC0F"/>
  <rect x="24" y="40" width="4" height="4" fill="#8BAC0F"/>
  <rect x="28" y="40" width="4" height="4" fill="#0F380F"/>
  <rect x="32" y="40" width="4" height="4" fill="#0F380F"/>
  <rect x="36" y="40" width="4" height="4" fill="#306230"/>
  <rect x="40" y="40" width="4" height="4" fill="#306230"/>
  <rect x="44" y="40" width="4" height="4" fill="#0F380F"/>

  <!-- Row y=11 -->
  <rect x="20" y="44" width="4" height="4" fill="#0F380F"/>
  <rect x="24" y="44" width="4" height="4" fill="#0F380F"/>
  <rect x="28" y="44" width="4" height="4" fill="#0F380F"/>
  <rect x="32" y="44" width="4" height="4" fill="#0F380F"/>
  <rect x="36" y="44" width="4" height="4" fill="#0F380F"/>
  <rect x="40" y="44" width="4" height="4" fill="#0F380F"/>

  <!-- Arms -->
  <rect x="8"  y="28" width="4" height="4" fill="#0F380F"/>
  <rect x="8"  y="32" width="4" height="4" fill="#8BAC0F"/>
  <rect x="52" y="28" width="4" height="4" fill="#0F380F"/>
  <rect x="52" y="32" width="4" height="4" fill="#306230"/>

  <!-- Feet -->
  <rect x="20" y="48" width="8" height="4" fill="#0F380F"/>
  <rect x="36" y="48" width="8" height="4" fill="#0F380F"/>

</g>


<!-- =============================== -->
<!-- === CONTENT STATE ============= -->
<!-- =============================== -->
<g class="baz-content">

  <!-- ANTENNA: sparkle (steady bright) -->
  <rect x="28" y="0"  width="4" height="4" fill="#E0F8D0"/>
  <rect x="32" y="0"  width="4" height="4" fill="#E0F8D0"/>
  <rect x="36" y="0"  width="4" height="4" fill="#E0F8D0"/>
  <rect x="32" y="4"  width="4" height="4" fill="#E0F8D0"/>
  <!-- stalk -->
  <rect x="32" y="8"  width="4" height="4" fill="#0F380F"/>
  <rect x="32" y="12" width="4" height="4" fill="#0F380F"/>

  <!-- BODY -->
  <!-- Row y=3 -->
  <rect x="20" y="12" width="4" height="4" fill="#0F380F"/>
  <rect x="24" y="12" width="4" height="4" fill="#0F380F"/>
  <rect x="28" y="12" width="4" height="4" fill="#0F380F"/>
  <rect x="36" y="12" width="4" height="4" fill="#0F380F"/>
  <rect x="40" y="12" width="4" height="4" fill="#0F380F"/>

  <!-- Row y=4 -->
  <rect x="16" y="16" width="4" height="4" fill="#0F380F"/>
  <rect x="20" y="16" width="4" height="4" fill="#8BAC0F"/>
  <rect x="24" y="16" width="4" height="4" fill="#8BAC0F"/>
  <rect x="28" y="16" width="4" height="4" fill="#E0F8D0"/>
  <rect x="32" y="16" width="4" height="4" fill="#8BAC0F"/>
  <rect x="36" y="16" width="4" height="4" fill="#8BAC0F"/>
  <rect x="40" y="16" width="4" height="4" fill="#306230"/>
  <rect x="44" y="16" width="4" height="4" fill="#0F380F"/>

  <!-- Row y=5 -->
  <rect x="12" y="20" width="4" height="4" fill="#0F380F"/>
  <rect x="16" y="20" width="4" height="4" fill="#8BAC0F"/>
  <rect x="20" y="20" width="4" height="4" fill="#8BAC0F"/>
  <rect x="24" y="20" width="4" height="4" fill="#8BAC0F"/>
  <rect x="28" y="20" width="4" height="4" fill="#8BAC0F"/>
  <rect x="32" y="20" width="4" height="4" fill="#8BAC0F"/>
  <rect x="36" y="20" width="4" height="4" fill="#8BAC0F"/>
  <rect x="40" y="20" width="4" height="4" fill="#306230"/>
  <rect x="44" y="20" width="4" height="4" fill="#306230"/>
  <rect x="48" y="20" width="4" height="4" fill="#0F380F"/>

  <!-- Row y=6 (happy crescent eyes ^_^) -->
  <rect x="12" y="24" width="4" height="4" fill="#0F380F"/>
  <rect x="16" y="24" width="4" height="4" fill="#8BAC0F"/>
  <!-- Left crescent: body-dark-body -->
  <rect x="20" y="24" width="4" height="4" fill="#8BAC0F"/>
  <rect x="24" y="24" width="4" height="4" fill="#0F380F"/>
  <rect x="28" y="24" width="4" height="4" fill="#8BAC0F"/>
  <rect x="32" y="24" width="4" height="4" fill="#8BAC0F"/>
  <!-- Right crescent -->
  <rect x="36" y="24" width="4" height="4" fill="#8BAC0F"/>
  <rect x="40" y="24" width="4" height="4" fill="#0F380F"/>
  <rect x="44" y="24" width="4" height="4" fill="#306230"/>
  <rect x="48" y="24" width="4" height="4" fill="#0F380F"/>

  <!-- Row y=7 (crescent bottoms) -->
  <rect x="12" y="28" width="4" height="4" fill="#0F380F"/>
  <rect x="16" y="28" width="4" height="4" fill="#8BAC0F"/>
  <rect x="20" y="28" width="4" height="4" fill="#0F380F"/>
  <rect x="24" y="28" width="4" height="4" fill="#8BAC0F"/>
  <rect x="28" y="28" width="4" height="4" fill="#8BAC0F"/>
  <rect x="32" y="28" width="4" height="4" fill="#8BAC0F"/>
  <rect x="36" y="28" width="4" height="4" fill="#0F380F"/>
  <rect x="40" y="28" width="4" height="4" fill="#306230"/>
  <rect x="44" y="28" width="4" height="4" fill="#306230"/>
  <rect x="48" y="28" width="4" height="4" fill="#0F380F"/>

  <!-- Row y=8 -->
  <rect x="12" y="32" width="4" height="4" fill="#0F380F"/>
  <rect x="16" y="32" width="4" height="4" fill="#8BAC0F"/>
  <rect x="20" y="32" width="4" height="4" fill="#8BAC0F"/>
  <rect x="24" y="32" width="4" height="4" fill="#8BAC0F"/>
  <rect x="28" y="32" width="4" height="4" fill="#8BAC0F"/>
  <rect x="32" y="32" width="4" height="4" fill="#8BAC0F"/>
  <rect x="36" y="32" width="4" height="4" fill="#8BAC0F"/>
  <rect x="40" y="32" width="4" height="4" fill="#306230"/>
  <rect x="44" y="32" width="4" height="4" fill="#306230"/>
  <rect x="48" y="32" width="4" height="4" fill="#0F380F"/>

  <!-- Row y=9 (wide smile) -->
  <rect x="12" y="36" width="4" height="4" fill="#0F380F"/>
  <rect x="16" y="36" width="4" height="4" fill="#8BAC0F"/>
  <rect x="20" y="36" width="4" height="4" fill="#0F380F"/>
  <rect x="24" y="36" width="4" height="4" fill="#8BAC0F"/>
  <rect x="28" y="36" width="4" height="4" fill="#8BAC0F"/>
  <rect x="32" y="36" width="4" height="4" fill="#8BAC0F"/>
  <rect x="36" y="36" width="4" height="4" fill="#0F380F"/>
  <rect x="40" y="36" width="4" height="4" fill="#306230"/>
  <rect x="44" y="36" width="4" height="4" fill="#306230"/>
  <rect x="48" y="36" width="4" height="4" fill="#0F380F"/>

  <!-- Row y=10 (smile curve bottom) -->
  <rect x="16" y="40" width="4" height="4" fill="#0F380F"/>
  <rect x="20" y="40" width="4" height="4" fill="#8BAC0F"/>
  <rect x="24" y="40" width="4" height="4" fill="#0F380F"/>
  <rect x="28" y="40" width="4" height="4" fill="#0F380F"/>
  <rect x="32" y="40" width="4" height="4" fill="#0F380F"/>
  <rect x="36" y="40" width="4" height="4" fill="#306230"/>
  <rect x="40" y="40" width="4" height="4" fill="#306230"/>
  <rect x="44" y="40" width="4" height="4" fill="#0F380F"/>

  <!-- Row y=11 -->
  <rect x="20" y="44" width="4" height="4" fill="#0F380F"/>
  <rect x="24" y="44" width="4" height="4" fill="#0F380F"/>
  <rect x="28" y="44" width="4" height="4" fill="#0F380F"/>
  <rect x="32" y="44" width="4" height="4" fill="#0F380F"/>
  <rect x="36" y="44" width="4" height="4" fill="#0F380F"/>
  <rect x="40" y="44" width="4" height="4" fill="#0F380F"/>

  <!-- Arms -->
  <rect x="8"  y="28" width="4" height="4" fill="#0F380F"/>
  <rect x="8"  y="32" width="4" height="4" fill="#8BAC0F"/>
  <rect x="52" y="28" width="4" height="4" fill="#0F380F"/>
  <rect x="52" y="32" width="4" height="4" fill="#306230"/>

  <!-- Feet -->
  <rect x="20" y="48" width="8" height="4" fill="#0F380F"/>
  <rect x="36" y="48" width="8" height="4" fill="#0F380F"/>

  <!-- Floating sparkle pixels around character -->
  <g class="sparkle-a">
    <rect x="4"  y="12" width="4" height="4" fill="#E0F8D0"/>
  </g>
  <g class="sparkle-b">
    <rect x="56" y="16" width="4" height="4" fill="#E0F8D0"/>
  </g>
  <g class="sparkle-c">
    <rect x="0"  y="24" width="4" height="4" fill="#E0F8D0"/>
  </g>

</g>

</svg>