<svg xmlns="http://www.w3.org/2000/svg" viewBox="0 0 64 64" width="64" height="64" shape-rendering="crispEdges">
  <style>
    .user-idle { display: block; }
    .user-listen { display: none; }

    /* IDLE: subtle breathing micro-movement */
    @keyframes idle-breathe {
      0%   { transform: translate(0, 0); }
      38%  { transform: translate(0, 0); }       /* hold neutral 2s of ~5.1s */
      40%  { transform: translate(1px, 0); }      /* micro shift right 1px */
      42%  { transform: translate(0, 0); }        /* return */
      100% { transform: translate(0, 0); }        /* hold neutral 3s */
    }
    .user-idle .idle-head {
      animation: idle-breathe 5.1s ease-in-out infinite;
    }

    /* LISTEN: attentive lean + nod */
    @keyframes listen-cycle {
      0%   { transform: translate(0, 0); }        /* neutral */
      16%  { transform: translate(0, 0); }
      25%  { transform: translate(-1px, 0); }     /* lean forward (left toward BAZ) */
      42%  { transform: translate(0, 0); }         /* return */
      50%  { transform: translate(0, 1px); }      /* slight nod down */
      58%  { transform: translate(0, 0); }         /* return */
      100% { transform: translate(0, 0); }         /* rest */
    }
    .user-listen .listen-head {
      animation: listen-cycle 6s ease-in-out infinite;
    }
  </style>

  <!-- Black background -->
  <rect width="64" height="64" fill="#000000"/>

  <!-- ============================================ -->
  <!-- IDLE STATE                                   -->
  <!-- ============================================ -->
  <g class="user-idle">

    <!-- Shoulders (static, don't animate) -->
    <!-- Leaning forward: entire bust offset 1px left -->
    <!-- Right side = shadow (#003355), Left side = highlight (#00AACC) -->

    <!-- Shoulder row 1 (y40) - relaxed, left slightly higher -->
    <rect x="19" y="40" width="2"  height="2" fill="#00AACC"/><!-- left highlight edge -->
    <rect x="21" y="40" width="10" height="2" fill="#006688"/>
    <rect x="31" y="40" width="10" height="2" fill="#006688"/>
    <rect x="41" y="40" width="2"  height="2" fill="#003355"/><!-- right shadow edge -->
    <!-- Right shoulder drops 1 row lower (relaxed asymmetry) -->
    <rect x="43" y="42" width="2"  height="2" fill="#003355"/>

    <!-- Shoulder row 2 (y42) -->
    <rect x="15" y="42" width="2"  height="2" fill="#00AACC"/>
    <rect x="17" y="42" width="12" height="2" fill="#006688"/>
    <rect x="29" y="42" width="12" height="2" fill="#006688"/>
    <rect x="41" y="42" width="2"  height="2" fill="#003355"/>

    <!-- Shoulder row 3 (y44) -->
    <rect x="11" y="44" width="2"  height="2" fill="#00AACC"/>
    <rect x="13" y="44" width="14" height="2" fill="#006688"/>
    <rect x="27" y="44" width="14" height="2" fill="#006688"/>
    <rect x="41" y="44" width="4"  height="2" fill="#003355"/>
    <rect x="45" y="44" width="2"  height="2" fill="#001122"/>

    <!-- Shoulder row 4 (y46) -->
    <rect x="7"  y="46" width="2"  height="2" fill="#001122"/>
    <rect x="9"  y="46" width="2"  height="2" fill="#00AACC"/>
    <rect x="11" y="46" width="16" height="2" fill="#006688"/>
    <rect x="27" y="46" width="16" height="2" fill="#006688"/>
    <rect x="43" y="46" width="4"  height="2" fill="#003355"/>
    <rect x="47" y="46" width="2"  height="2" fill="#001122"/>

    <!-- Shoulder row 5 (y48) -->
    <rect x="5"  y="48" width="2"  height="2" fill="#001122"/>
    <rect x="7"  y="48" width="2"  height="2" fill="#00AACC"/>
    <rect x="9"  y="48" width="18" height="2" fill="#006688"/>
    <rect x="27" y="48" width="18" height="2" fill="#006688"/>
    <rect x="45" y="48" width="4"  height="2" fill="#003355"/>
    <rect x="49" y="48" width="2"  height="2" fill="#001122"/>

    <!-- Torso fill (y50-64) -->
    <rect x="3"  y="50" width="2"  height="2" fill="#001122"/>
    <rect x="5"  y="50" width="2"  height="2" fill="#00AACC"/>
    <rect x="7"  y="50" width="20" height="2" fill="#006688"/>
    <rect x="27" y="50" width="20" height="2" fill="#006688"/>
    <rect x="47" y="50" width="4"  height="2" fill="#003355"/>
    <rect x="51" y="50" width="2"  height="2" fill="#001122"/>

    <rect x="1"  y="52" width="2"  height="2" fill="#001122"/>
    <rect x="3"  y="52" width="2"  height="2" fill="#00AACC"/>
    <rect x="5"  y="52" width="22" height="2" fill="#006688"/>
    <rect x="27" y="52" width="22" height="2" fill="#006688"/>
    <rect x="49" y="52" width="4"  height="2" fill="#003355"/>
    <rect x="53" y="52" width="2"  height="2" fill="#001122"/>

    <rect x="0"  y="54" width="2"  height="2" fill="#001122"/>
    <rect x="2"  y="54" width="2"  height="2" fill="#00AACC"/>
    <rect x="4"  y="54" width="23" height="10" fill="#006688"/>
    <rect x="27" y="54" width="24" height="10" fill="#006688"/>
    <rect x="51" y="54" width="4"  height="10" fill="#003355"/>
    <rect x="55" y="54" width="2"  height="10" fill="#001122"/>
    <rect x="0"  y="56" width="2"  height="8" fill="#001122"/>
    <rect x="2"  y="56" width="2"  height="8" fill="#00AACC"/>

    <!-- Animated head group -->
    <g class="idle-head">

      <!-- Hair top (slightly messy, asymmetric) -->
      <!-- Offset 1px left for forward lean -->
      <rect x="21" y="2"  width="18" height="2" fill="#001122"/><!-- contour top -->
      <rect x="19" y="4"  width="2"  height="2" fill="#001122"/>
      <rect x="21" y="4"  width="6"  height="2" fill="#006688"/><!-- hair left -->
      <rect x="27" y="4"  width="6"  height="2" fill="#003355"/><!-- hair right darker -->
      <rect x="33" y="4"  width="6"  height="2" fill="#006688"/>
      <rect x="39" y="4"  width="2"  height="2" fill="#001122"/>

      <!-- Hair strand protruding on forehead (unique trait) -->
      <rect x="23" y="6"  width="2"  height="2" fill="#006688"/>
      <rect x="22" y="8"  width="2"  height="2" fill="#006688"/>
      <rect x="21" y="10" width="2"  height="2" fill="#003355"/><!-- strand tip fades -->

      <!-- Head row y6: wider at temples -->
      <rect x="17" y="6"  width="2"  height="2" fill="#001122"/><!-- contour left -->
      <rect x="19" y="6"  width="4"  height="2" fill="#00AACC"/><!-- highlight left -->
      <rect x="25" y="6"  width="12" height="2" fill="#006688"/><!-- main -->
      <rect x="37" y="6"  width="2"  height="2" fill="#003355"/><!-- shadow right -->
      <rect x="39" y="6"  width="2"  height="2" fill="#001122"/><!-- contour right -->

      <!-- Head row y8: full width temples -->
      <rect x="15" y="8"  width="2"  height="2" fill="#001122"/>
      <rect x="17" y="8"  width="4"  height="2" fill="#00AACC"/>
      <rect x="21" y="8"  width="16" height="2" fill="#006688"/>
      <rect x="37" y="8"  width="2"  height="2" fill="#003355"/>
      <rect x="39" y="8"  width="2"  height="2" fill="#001122"/>

      <!-- Head row y10: widest -->
      <rect x="15" y="10" width="2"  height="2" fill="#001122"/>
      <rect x="17" y="10" width="2"  height="2" fill="#00AACC"/>
      <rect x="19" y="10" width="18" height="2" fill="#006688"/>
      <rect x="37" y="10" width="2"  height="2" fill="#003355"/>
      <rect x="39" y="10" width="2"  height="2" fill="#001122"/>

      <!-- Head row y12: widest -->
      <rect x="15" y="12" width="2"  height="2" fill="#001122"/>
      <rect x="17" y="12" width="2"  height="2" fill="#00AACC"/>
      <rect x="19" y="12" width="18" height="2" fill="#006688"/>
      <rect x="37" y="12" width="2"  height="2" fill="#003355"/>
      <rect x="39" y="12" width="2"  height="2" fill="#001122"/>

      <!-- GLASSES (y14-y16) - thin rectangular, 2x8 each lens -->
      <!-- Left lens (highlight color) -->
      <rect x="18" y="14" width="8"  height="2" fill="#00AACC"/>
      <!-- Bridge -->
      <rect x="26" y="14" width="2"  height="2" fill="#00AACC"/>
      <!-- Right lens -->
      <rect x="28" y="14" width="8"  height="2" fill="#00AACC"/>
      <!-- Glasses frame contour (subtle dark line above/below) -->
      <rect x="18" y="13" width="8"  height="1" fill="#001122"/>
      <rect x="28" y="13" width="8"  height="1" fill="#001122"/>
      <rect x="18" y="16" width="8"  height="1" fill="#001122"/>
      <rect x="28" y="16" width="8"  height="1" fill="#001122"/>
      <!-- Temple arms extending to head edge -->
      <rect x="16" y="14" width="2"  height="2" fill="#00AACC"/>
      <rect x="36" y="14" width="4"  height="2" fill="#003355"/><!-- right arm darker -->

      <!-- Head rows around glasses -->
      <rect x="15" y="14" width="1"  height="2" fill="#001122"/>
      <rect x="40" y="14" width="1"  height="2" fill="#001122"/>

      <!-- Head row y16-y18: mid face -->
      <rect x="15" y="16" width="2"  height="2" fill="#001122"/>
      <rect x="17" y="16" width="2"  height="2" fill="#00AACC"/>
      <rect x="19" y="16" width="18" height="2" fill="#006688"/>
      <rect x="37" y="16" width="2"  height="2" fill="#003355"/>
      <rect x="39" y="16" width="2"  height="2" fill="#001122"/>

      <!-- Head row y18: mid face -->
      <rect x="15" y="18" width="2"  height="2" fill="#001122"/>
      <rect x="17" y="18" width="2"  height="2" fill="#00AACC"/>
      <rect x="19" y="18" width="18" height="2" fill="#006688"/>
      <rect x="37" y="18" width="2"  height="2" fill="#003355"/>
      <rect x="39" y="18" width="2"  height="2" fill="#001122"/>

      <!-- Beauty mark on right cheek (unique trait) - 1px -->
      <rect x="35" y="19" width="1"  height="1" fill="#003355"/>

      <!-- Head row y20: starting to narrow -->
      <rect x="16" y="20" width="2"  height="2" fill="#001122"/>
      <rect x="18" y="20" width="2"  height="2" fill="#00AACC"/>
      <rect x="20" y="20" width="16" height="2" fill="#006688"/>
      <rect x="36" y="20" width="2"  height="2" fill="#003355"/>
      <rect x="38" y="20" width="2"  height="2" fill="#001122"/>

      <!-- Head row y22: narrowing jaw -->
      <rect x="17" y="22" width="2"  height="2" fill="#001122"/>
      <rect x="19" y="22" width="2"  height="2" fill="#00AACC"/>
      <rect x="21" y="22" width="14" height="2" fill="#006688"/>
      <rect x="35" y="22" width="2"  height="2" fill="#003355"/>
      <rect x="37" y="22" width="2"  height="2" fill="#001122"/>

      <!-- Head row y24: jaw narrowing more -->
      <rect x="19" y="24" width="2"  height="2" fill="#001122"/>
      <rect x="21" y="24" width="2"  height="2" fill="#00AACC"/>
      <rect x="23" y="24" width="10" height="2" fill="#006688"/>
      <rect x="33" y="24" width="2"  height="2" fill="#003355"/>
      <rect x="35" y="24" width="2"  height="2" fill="#001122"/>

      <!-- Chin taper y26 -->
      <rect x="21" y="26" width="2"  height="2" fill="#001122"/>
      <rect x="23" y="26" width="2"  height="2" fill="#00AACC"/>
      <rect x="25" y="26" width="6"  height="2" fill="#006688"/>
      <rect x="31" y="26" width="2"  height="2" fill="#003355"/>
      <rect x="33" y="26" width="2"  height="2" fill="#001122"/>

      <!-- Chin point y28 -->
      <rect x="23" y="28" width="2"  height="2" fill="#001122"/>
      <rect x="25" y="28" width="6"  height="2" fill="#006688"/>
      <rect x="31" y="28" width="2"  height="2" fill="#001122"/>

      <!-- Neck y30-y34 -->
      <rect x="25" y="30" width="2"  height="2" fill="#00AACC"/>
      <rect x="27" y="30" width="4"  height="2" fill="#006688"/>
      <rect x="31" y="30" width="2"  height="2" fill="#003355"/>

      <rect x="24" y="32" width="2"  height="2" fill="#00AACC"/>
      <rect x="26" y="32" width="6"  height="2" fill="#006688"/>
      <rect x="32" y="32" width="2"  height="2" fill="#003355"/>

      <!-- Neck to shoulder transition y34-y38 -->
      <rect x="23" y="34" width="2"  height="2" fill="#00AACC"/>
      <rect x="25" y="34" width="8"  height="2" fill="#006688"/>
      <rect x="33" y="34" width="2"  height="2" fill="#003355"/>

      <rect x="21" y="36" width="2"  height="2" fill="#00AACC"/>
      <rect x="23" y="36" width="12" height="2" fill="#006688"/>
      <rect x="35" y="36" width="2"  height="2" fill="#003355"/>

      <rect x="19" y="38" width="2"  height="2" fill="#00AACC"/>
      <rect x="21" y="38" width="16" height="2" fill="#006688"/>
      <rect x="37" y="38" width="2"  height="2" fill="#003355"/>

    </g><!-- end idle-head -->
  </g><!-- end user-idle -->

  <!-- ============================================ -->
  <!-- LISTEN STATE                                 -->
  <!-- ============================================ -->
  <g class="user-listen">

    <!-- Shoulders (static, same as idle) -->
    <rect x="19" y="40" width="2"  height="2" fill="#00AACC"/>
    <rect x="21" y="40" width="10" height="2" fill="#006688"/>
    <rect x="31" y="40" width="10" height="2" fill="#006688"/>
    <rect x="41" y="40" width="2"  height="2" fill="#003355"/>
    <rect x="43" y="42" width="2"  height="2" fill="#003355"/>

    <rect x="15" y="42" width="2"  height="2" fill="#00AACC"/>
    <rect x="17" y="42" width="12" height="2" fill="#006688"/>
    <rect x="29" y="42" width="12" height="2" fill="#006688"/>
    <rect x="41" y="42" width="2"  height="2" fill="#003355"/>

    <rect x="11" y="44" width="2"  height="2" fill="#00AACC"/>
    <rect x="13" y="44" width="14" height="2" fill="#006688"/>
    <rect x="27" y="44" width="14" height="2" fill="#006688"/>
    <rect x="41" y="44" width="4"  height="2" fill="#003355"/>
    <rect x="45" y="44" width="2"  height="2" fill="#001122"/>

    <rect x="7"  y="46" width="2"  height="2" fill="#001122"/>
    <rect x="9"  y="46" width="2"  height="2" fill="#00AACC"/>
    <rect x="11" y="46" width="16" height="2" fill="#006688"/>
    <rect x="27" y="46" width="16" height="2" fill="#006688"/>
    <rect x="43" y="46" width="4"  height="2" fill="#003355"/>
    <rect x="47" y="46" width="2"  height="2" fill="#001122"/>

    <rect x="5"  y="48" width="2"  height="2" fill="#001122"/>
    <rect x="7"  y="48" width="2"  height="2" fill="#00AACC"/>
    <rect x="9"  y="48" width="18" height="2" fill="#006688"/>
    <rect x="27" y="48" width="18" height="2" fill="#006688"/>
    <rect x="45" y="48" width="4"  height="2" fill="#003355"/>
    <rect x="49" y="48" width="2"  height="2" fill="#001122"/>

    <rect x="3"  y="50" width="2"  height="2" fill="#001122"/>
    <rect x="5"  y="50" width="2"  height="2" fill="#00AACC"/>
    <rect x="7"  y="50" width="20" height="2" fill="#006688"/>
    <rect x="27" y="50" width="20" height="2" fill="#006688"/>
    <rect x="47" y="50" width="4"  height="2" fill="#003355"/>
    <rect x="51" y="50" width="2"  height="2" fill="#001122"/>

    <rect x="1"  y="52" width="2"  height="2" fill="#001122"/>
    <rect x="3"  y="52" width="2"  height="2" fill="#00AACC"/>
    <rect x="5"  y="52" width="22" height="2" fill="#006688"/>
    <rect x="27" y="52" width="22" height="2" fill="#006688"/>
    <rect x="49" y="52" width="4"  height="2" fill="#003355"/>
    <rect x="53" y="52" width="2"  height="2" fill="#001122"/>

    <rect x="0"  y="54" width="2"  height="2" fill="#001122"/>
    <rect x="2"  y="54" width="2"  height="2" fill="#00AACC"/>
    <rect x="4"  y="54" width="23" height="10" fill="#006688"/>
    <rect x="27" y="54" width="24" height="10" fill="#006688"/>
    <rect x="51" y="54" width="4"  height="10" fill="#003355"/>
    <rect x="55" y="54" width="2"  height="10" fill="#001122"/>
    <rect x="0"  y="56" width="2"  height="8" fill="#001122"/>
    <rect x="2"  y="56" width="2"  height="8" fill="#00AACC"/>

    <!-- Animated head group for listen -->
    <g class="listen-head">

      <!-- Hair top -->
      <rect x="21" y="2"  width="18" height="2" fill="#001122"/>
      <rect x="19" y="4"  width="2"  height="2" fill="#001122"/>
      <rect x="21" y="4"  width="6"  height="2" fill="#006688"/>
      <rect x="27" y="4"  width="6"  height="2" fill="#003355"/>
      <rect x="33" y="4"  width="6"  height="2" fill="#006688"/>
      <rect x="39" y="4"  width="2"  height="2" fill="#001122"/>

      <!-- Hair strand -->
      <rect x="23" y="6"  width="2"  height="2" fill="#006688"/>
      <rect x="22" y="8"  width="2"  height="2" fill="#006688"/>
      <rect x="21" y="10" width="2"  height="2" fill="#003355"/>

      <!-- Head rows (identical geometry to idle) -->
      <rect x="17" y="6"  width="2"  height="2" fill="#001122"/>
      <rect x="19" y="6"  width="4"  height="2" fill="#00AACC"/>
      <rect x="25" y="6"  width="12" height="2" fill="#006688"/>
      <rect x="37" y="6"  width="2"  height="2" fill="#003355"/>
      <rect x="39" y="6"  width="2"  height="2" fill="#001122"/>

      <rect x="15" y="8"  width="2"  height="2" fill="#001122"/>
      <rect x="17" y="8"  width="4"  height="2" fill="#00AACC"/>
      <rect x="21" y="8"  width="16" height="2" fill="#006688"/>
      <rect x="37" y="8"  width="2"  height="2" fill="#003355"/>
      <rect x="39" y="8"  width="2"  height="2" fill="#001122"/>

      <rect x="15" y="10" width="2"  height="2" fill="#001122"/>
      <rect x="17" y="10" width="2"  height="2" fill="#00AACC"/>
      <rect x="19" y="10" width="18" height="2" fill="#006688"/>
      <rect x="37" y="10" width="2"  height="2" fill="#003355"/>
      <rect x="39" y="10" width="2"  height="2" fill="#001122"/>

      <rect x="15" y="12" width="2"  height="2" fill="#001122"/>
      <rect x="17" y="12" width="2"  height="2" fill="#00AACC"/>
      <rect x="19" y="12" width="18" height="2" fill="#006688"/>
      <rect x="37" y="12" width="2"  height="2" fill="#003355"/>
      <rect x="39" y="12" width="2"  height="2" fill="#001122"/>

      <!-- Glasses -->
      <rect x="18" y="14" width="8"  height="2" fill="#00AACC"/>
      <rect x="26" y="14" width="2"  height="2" fill="#00AACC"/>
      <rect x="28" y="14" width="8"  height="2" fill="#00AACC"/>
      <rect x="18" y="13" width="8"  height="1" fill="#001122"/>
      <rect x="28" y="13" width="8"  height="1" fill="#001122"/>
      <rect x="18" y="16" width="8"  height="1" fill="#001122"/>
      <rect x="28" y="16" width="8"  height="1" fill="#001122"/>
      <rect x="16" y="14" width="2"  height="2" fill="#00AACC"/>
      <rect x="36" y="14" width="4"  height="2" fill="#003355"/>
      <rect x="15" y="14" width="1"  height="2" fill="#001122"/>
      <rect x="40" y="14" width="1"  height="2" fill="#001122"/>

      <rect x="15" y="16" width="2"  height="2" fill="#001122"/>
      <rect x="17" y="16" width="2"  height="2" fill="#00AACC"/>
      <rect x="19" y="16" width="18" height="2" fill="#006688"/>
      <rect x="37" y="16" width="2"  height="2" fill="#003355"/>
      <rect x="39" y="16" width="2"  height="2" fill="#001122"/>

      <rect x="15" y="18" width="2"  height="2" fill="#001122"/>
      <rect x="17" y="18" width="2"  height="2" fill="#00AACC"/>
      <rect x="19" y="18" width="18" height="2" fill="#006688"/>
      <rect x="37" y="18" width="2"  height="2" fill="#003355"/>
      <rect x="39" y="18" width="2"  height="2" fill="#001122"/>

      <!-- Beauty mark -->
      <rect x="35" y="19" width="1"  height="1" fill="#003355"/>

      <rect x="16" y="20" width="2"  height="2" fill="#001122"/>
      <rect x="18" y="20" width="2"  height="2" fill="#00AACC"/>
      <rect x="20" y="20" width="16" height="2" fill="#006688"/>
      <rect x="36" y="20" width="2"  height="2" fill="#003355"/>
      <rect x="38" y="20" width="2"  height="2" fill="#001122"/>

      <rect x="17" y="22" width="2"  height="2" fill="#001122"/>
      <rect x="19" y="22" width="2"  height="2" fill="#00AACC"/>
      <rect x="21" y="22" width="14" height="2" fill="#006688"/>
      <rect x="35" y="22" width="2"  height="2" fill="#003355"/>
      <rect x="37" y="22" width="2"  height="2" fill="#001122"/>

      <rect x="19" y="24" width="2"  height="2" fill="#001122"/>
      <rect x="21" y="24" width="2"  height="2" fill="#00AACC"/>
      <rect x="23" y="24" width="10" height="2" fill="#006688"/>
      <rect x="33" y="24" width="2"  height="2" fill="#003355"/>
      <rect x="35" y="24" width="2"  height="2" fill="#001122"/>

      <rect x="21" y="26" width="2"  height="2" fill="#001122"/>
      <rect x="23" y="26" width="2"  height="2" fill="#00AACC"/>
      <rect x="25" y="26" width="6"  height="2" fill="#006688"/>
      <rect x="31" y="26" width="2"  height="2" fill="#003355"/>
      <rect x="33" y="26" width="2"  height="2" fill="#001122"/>

      <rect x="23" y="28" width="2"  height="2" fill="#001122"/>
      <rect x="25" y="28" width="6"  height="2" fill="#006688"/>
      <rect x="31" y="28" width="2"  height="2" fill="#001122"/>

      <!-- Neck -->
      <rect x="25" y="30" width="2"  height="2" fill="#00AACC"/>
      <rect x="27" y="30" width="4"  height="2" fill="#006688"/>
      <rect x="31" y="30" width="2"  height="2" fill="#003355"/>

      <rect x="24" y="32" width="2"  height="2" fill="#00AACC"/>
      <rect x="26" y="32" width="6"  height="2" fill="#006688"/>
      <rect x="32" y="32" width="2"  height="2" fill="#003355"/>

      <rect x="23" y="34" width="2"  height="2" fill="#00AACC"/>
      <rect x="25" y="34" width="8"  height="2" fill="#006688"/>
      <rect x="33" y="34" width="2"  height="2" fill="#003355"/>

      <rect x="21" y="36" width="2"  height="2" fill="#00AACC"/>
      <rect x="23" y="36" width="12" height="2" fill="#006688"/>
      <rect x="35" y="36" width="2"  height="2" fill="#003355"/>

      <rect x="19" y="38" width="2"  height="2" fill="#00AACC"/>
      <rect x="21" y="38" width="16" height="2" fill="#006688"/>
      <rect x="37" y="38" width="2"  height="2" fill="#003355"/>

    </g><!-- end listen-head -->
  </g><!-- end user-listen -->

</svg>