<svg xmlns="http://www.w3.org/2000/svg" viewBox="0 0 64 64" width="64" height="64" shape-rendering="crispEdges">
  <style>
    .user-idle { display: block; }
    .user-listen { display: none; }

    /* IDLE: subtle breathing micro-movement */
    @keyframes idle-breathe {
      0%   { transform: translate(0, 0); }
      38%  { transform: translate(0, 0); }
      40%  { transform: translate(1px, 0); }
      42%  { transform: translate(0, 0); }
      100% { transform: translate(0, 0); }
    }
    .user-idle .idle-head {
      animation: idle-breathe 5.1s ease-in-out infinite;
    }

    /* LISTEN: attentive lean + nod */
    @keyframes listen-cycle {
      0%   { transform: translate(0, 0); }
      16%  { transform: translate(0, 0); }
      25%  { transform: translate(-1px, 0); }
      42%  { transform: translate(0, 0); }
      50%  { transform: translate(0, 1px); }
      58%  { transform: translate(0, 0); }
      100% { transform: translate(0, 0); }
    }
    .user-listen .listen-head {
      animation: listen-cycle 6s ease-in-out infinite;
    }
  </style>

  <!-- Black background -->
  <rect width="64" height="64" fill="#000000"/>

  <!-- ============================================ -->
  <!-- IDLE STATE                                   -->
  <!-- ============================================ -->
  <g class="user-idle">

    <!-- Shoulders + torso (static) -->
    <!-- Slight lean forward: bust offset 1px left -->
    <!-- Right shoulder 1px lower (relaxed asymmetry) -->

    <!-- Collar detail y38-40 (hoodie neckline) -->
    <rect x="22" y="38" width="2"  height="2" fill="#001122"/>
    <rect x="24" y="38" width="10" height="2" fill="#001122"/>
    <rect x="34" y="38" width="2"  height="2" fill="#001122"/>
    <!-- Yellow pin on collar (connects to BAZ's yellow label) -->
    <rect x="25" y="39" width="1"  height="1" fill="#FFCC00"/>

    <!-- Shoulder row 1 (y40) -->
    <rect x="19" y="40" width="2"  height="2" fill="#00AACC"/>
    <rect x="21" y="40" width="10" height="2" fill="#006688"/>
    <rect x="31" y="40" width="10" height="2" fill="#006688"/>
    <rect x="41" y="40" width="2"  height="2" fill="#003355"/>
    <!-- Right shoulder drops 1 row (relaxed asymmetry) -->
    <rect x="43" y="42" width="2"  height="2" fill="#003355"/>

    <!-- Shoulder row 2 (y42) -->
    <rect x="15" y="42" width="2"  height="2" fill="#00AACC"/>
    <rect x="17" y="42" width="12" height="2" fill="#006688"/>
    <rect x="29" y="42" width="12" height="2" fill="#006688"/>
    <rect x="41" y="42" width="2"  height="2" fill="#003355"/>

    <!-- Shoulder row 3 (y44) -->
    <rect x="11" y="44" width="2"  height="2" fill="#00AACC"/>
    <rect x="13" y="44" width="14" height="2" fill="#006688"/>
    <rect x="27" y="44" width="14" height="2" fill="#006688"/>
    <rect x="41" y="44" width="4"  height="2" fill="#003355"/>
    <rect x="45" y="44" width="2"  height="2" fill="#001122"/>

    <!-- Shoulder row 4 (y46) -->
    <rect x="7"  y="46" width="2"  height="2" fill="#001122"/>
    <rect x="9"  y="46" width="2"  height="2" fill="#00AACC"/>
    <rect x="11" y="46" width="16" height="2" fill="#006688"/>
    <rect x="27" y="46" width="16" height="2" fill="#006688"/>
    <rect x="43" y="46" width="4"  height="2" fill="#003355"/>
    <rect x="47" y="46" width="2"  height="2" fill="#001122"/>

    <!-- Shoulder row 5 (y48) -->
    <rect x="5"  y="48" width="2"  height="2" fill="#001122"/>
    <rect x="7"  y="48" width="2"  height="2" fill="#00AACC"/>
    <rect x="9"  y="48" width="18" height="2" fill="#006688"/>
    <rect x="27" y="48" width="18" height="2" fill="#006688"/>
    <rect x="45" y="48" width="4"  height="2" fill="#003355"/>
    <rect x="49" y="48" width="2"  height="2" fill="#001122"/>

    <!-- Torso fill (y50-64) -->
    <rect x="3"  y="50" width="2"  height="2" fill="#001122"/>
    <rect x="5"  y="50" width="2"  height="2" fill="#00AACC"/>
    <rect x="7"  y="50" width="20" height="2" fill="#006688"/>
    <rect x="27" y="50" width="20" height="2" fill="#006688"/>
    <rect x="47" y="50" width="4"  height="2" fill="#003355"/>
    <rect x="51" y="50" width="2"  height="2" fill="#001122"/>

    <rect x="1"  y="52" width="2"  height="2" fill="#001122"/>
    <rect x="3"  y="52" width="2"  height="2" fill="#00AACC"/>
    <rect x="5"  y="52" width="22" height="2" fill="#006688"/>
    <rect x="27" y="52" width="22" height="2" fill="#006688"/>
    <rect x="49" y="52" width="4"  height="2" fill="#003355"/>
    <rect x="53" y="52" width="2"  height="2" fill="#001122"/>

    <rect x="0"  y="54" width="2"  height="2" fill="#001122"/>
    <rect x="2"  y="54" width="2"  height="2" fill="#00AACC"/>
    <rect x="4"  y="54" width="23" height="10" fill="#006688"/>
    <rect x="27" y="54" width="24" height="10" fill="#006688"/>
    <rect x="51" y="54" width="4"  height="10" fill="#003355"/>
    <rect x="55" y="54" width="2"  height="10" fill="#001122"/>
    <rect x="0"  y="56" width="2"  height="8" fill="#001122"/>
    <rect x="2"  y="56" width="2"  height="8" fill="#00AACC"/>

    <!-- Animated head group -->
    <g class="idle-head">

      <!-- === HAIR TOP (slightly messy, asymmetric) === -->
      <rect x="21" y="2"  width="18" height="2" fill="#001122"/>
      <rect x="19" y="4"  width="2"  height="2" fill="#001122"/>
      <rect x="21" y="4"  width="6"  height="2" fill="#006688"/>
      <rect x="27" y="4"  width="6"  height="2" fill="#003355"/>
      <rect x="33" y="4"  width="6"  height="2" fill="#006688"/>
      <rect x="39" y="4"  width="2"  height="2" fill="#001122"/>

      <!-- === HAIR STRAND on forehead (signature element, curved) === -->
      <!-- 4px strand with gentle curve, not staircase -->
      <rect x="24" y="6"  width="2"  height="1" fill="#006688"/>
      <rect x="23" y="7"  width="2"  height="1" fill="#006688"/>
      <rect x="22" y="8"  width="2"  height="1" fill="#006688"/>
      <rect x="21" y="9"  width="2"  height="1" fill="#003355"/><!-- tip fades to shadow -->

      <!-- === HEAD ROW y6: wider at temples === -->
      <rect x="17" y="6"  width="2"  height="2" fill="#001122"/>
      <rect x="19" y="6"  width="4"  height="2" fill="#00AACC"/>
      <rect x="25" y="6"  width="12" height="2" fill="#006688"/>
      <rect x="37" y="6"  width="2"  height="2" fill="#003355"/>
      <rect x="39" y="6"  width="2"  height="2" fill="#001122"/>

      <!-- Head row y8: full width temples -->
      <rect x="15" y="8"  width="2"  height="2" fill="#001122"/>
      <rect x="17" y="8"  width="4"  height="2" fill="#00AACC"/>
      <rect x="21" y="8"  width="16" height="2" fill="#006688"/>
      <rect x="37" y="8"  width="2"  height="2" fill="#003355"/>
      <rect x="39" y="8"  width="2"  height="2" fill="#001122"/>

      <!-- Head row y10: widest -->
      <rect x="15" y="10" width="2"  height="2" fill="#001122"/>
      <rect x="17" y="10" width="2"  height="2" fill="#00AACC"/>
      <rect x="19" y="10" width="18" height="2" fill="#006688"/>
      <rect x="37" y="10" width="2"  height="2" fill="#003355"/>
      <rect x="39" y="10" width="2"  height="2" fill="#001122"/>

      <!-- Head row y12: widest -->
      <rect x="15" y="12" width="2"  height="2" fill="#001122"/>
      <rect x="17" y="12" width="2"  height="2" fill="#00AACC"/>
      <rect x="19" y="12" width="18" height="2" fill="#006688"/>
      <rect x="37" y="12" width="2"  height="2" fill="#003355"/>
      <rect x="39" y="12" width="2"  height="2" fill="#001122"/>

      <!-- === GLASSES (y14-y18) - rectangular lenses with eye glints === -->
      <!-- Frame top edge (1px dark line) -->
      <rect x="18" y="13" width="8"  height="1" fill="#001122"/>
      <rect x="28" y="13" width="8"  height="1" fill="#001122"/>

      <!-- Left lens: 7x3 frame in #00AACC outline -->
      <!-- Top frame row -->
      <rect x="18" y="14" width="7"  height="1" fill="#00AACC"/>
      <!-- Middle row: frame sides + dark interior + GLINT -->
      <rect x="18" y="15" width="1"  height="1" fill="#00AACC"/><!-- left frame -->
      <rect x="19" y="15" width="5"  height="1" fill="#003355"/><!-- lens interior (dark) -->
      <rect x="21" y="15" width="1"  height="1" fill="#EEFFEE"/><!-- LEFT EYE GLINT (centered) -->
      <rect x="22" y="15" width="1"  height="1" fill="#EEFFEE"/><!-- LEFT EYE GLINT pixel 2 -->
      <rect x="24" y="15" width="1"  height="1" fill="#00AACC"/><!-- right frame -->
      <!-- Bottom row -->
      <rect x="18" y="16" width="7"  height="1" fill="#00AACC"/>

      <!-- Bridge between lenses (2px) -->
      <rect x="25" y="15" width="2"  height="1" fill="#006688"/>
      <rect x="25" y="14" width="2"  height="1" fill="#006688"/>
      <rect x="25" y="16" width="2"  height="1" fill="#006688"/>

      <!-- Right lens: 7x3 frame in #00AACC outline -->
      <!-- Top frame row -->
      <rect x="27" y="14" width="7"  height="1" fill="#00AACC"/>
      <!-- Middle row: frame sides + dark interior + GLINT -->
      <rect x="27" y="15" width="1"  height="1" fill="#00AACC"/><!-- left frame -->
      <rect x="28" y="15" width="5"  height="1" fill="#003355"/><!-- lens interior (dark) -->
      <rect x="30" y="15" width="1"  height="1" fill="#EEFFEE"/><!-- RIGHT EYE GLINT (centered) -->
      <rect x="31" y="15" width="1"  height="1" fill="#EEFFEE"/><!-- RIGHT EYE GLINT pixel 2 -->
      <rect x="33" y="15" width="1"  height="1" fill="#00AACC"/><!-- right frame -->
      <!-- Bottom row -->
      <rect x="27" y="16" width="7"  height="1" fill="#00AACC"/>

      <!-- Temple arms extending to head edge -->
      <rect x="16" y="14" width="2"  height="3" fill="#00AACC"/><!-- left arm -->
      <rect x="34" y="14" width="4"  height="3" fill="#003355"/><!-- right arm (shadow) -->

      <!-- Head contour at glasses level -->
      <rect x="15" y="14" width="1"  height="3" fill="#001122"/>
      <rect x="38" y="14" width="2"  height="3" fill="#001122"/>

      <!-- === HEAD ROWS below glasses === -->
      <!-- y17-18: below glasses, uniform face -->
      <rect x="15" y="17" width="2"  height="1" fill="#001122"/>
      <rect x="17" y="17" width="2"  height="1" fill="#00AACC"/>
      <rect x="19" y="17" width="18" height="1" fill="#006688"/>
      <rect x="37" y="17" width="2"  height="1" fill="#003355"/>
      <rect x="39" y="17" width="2"  height="1" fill="#001122"/>

      <rect x="15" y="18" width="2"  height="2" fill="#001122"/>
      <rect x="17" y="18" width="2"  height="2" fill="#00AACC"/>
      <rect x="19" y="18" width="18" height="2" fill="#006688"/>
      <rect x="37" y="18" width="2"  height="2" fill="#003355"/>
      <rect x="39" y="18" width="2"  height="2" fill="#001122"/>

      <!-- Head row y20: starting to narrow -->
      <rect x="16" y="20" width="2"  height="2" fill="#001122"/>
      <rect x="18" y="20" width="2"  height="2" fill="#00AACC"/>
      <rect x="20" y="20" width="16" height="2" fill="#006688"/>
      <rect x="36" y="20" width="2"  height="2" fill="#003355"/>
      <rect x="38" y="20" width="2"  height="2" fill="#001122"/>

      <!-- Head row y22: narrowing jaw -->
      <rect x="17" y="22" width="2"  height="2" fill="#001122"/>
      <rect x="19" y="22" width="2"  height="2" fill="#00AACC"/>
      <rect x="21" y="22" width="14" height="2" fill="#006688"/>
      <rect x="35" y="22" width="2"  height="2" fill="#003355"/>
      <rect x="37" y="22" width="2"  height="2" fill="#001122"/>

      <!-- === MOUTH LINE (y24) - subtle shadow, NOT a drawn line === -->
      <!-- Mouth: 5px flat neutral line in face shadow color -->
      <rect x="25" y="24" width="5"  height="1" fill="#003355"/>

      <!-- Head row y24: jaw narrowing -->
      <rect x="19" y="24" width="2"  height="2" fill="#001122"/>
      <rect x="21" y="24" width="2"  height="2" fill="#00AACC"/>
      <rect x="23" y="24" width="2"  height="2" fill="#006688"/>
      <!-- mouth occupies x25-29 y24 (drawn above) -->
      <rect x="25" y="25" width="5"  height="1" fill="#006688"/><!-- face below mouth -->
      <rect x="30" y="24" width="3"  height="2" fill="#006688"/>
      <rect x="33" y="24" width="2"  height="2" fill="#003355"/>
      <rect x="35" y="24" width="2"  height="2" fill="#001122"/>

      <!-- Chin taper y26 -->
      <rect x="21" y="26" width="2"  height="2" fill="#001122"/>
      <rect x="23" y="26" width="2"  height="2" fill="#00AACC"/>
      <rect x="25" y="26" width="6"  height="2" fill="#006688"/>
      <rect x="31" y="26" width="2"  height="2" fill="#003355"/>
      <rect x="33" y="26" width="2"  height="2" fill="#001122"/>

      <!-- Chin point y28 -->
      <rect x="23" y="28" width="2"  height="2" fill="#001122"/>
      <rect x="25" y="28" width="6"  height="2" fill="#006688"/>
      <rect x="31" y="28" width="2"  height="2" fill="#001122"/>

      <!-- Neck y30-y34 -->
      <rect x="25" y="30" width="2"  height="2" fill="#00AACC"/>
      <rect x="27" y="30" width="4"  height="2" fill="#006688"/>
      <rect x="31" y="30" width="2"  height="2" fill="#003355"/>

      <rect x="24" y="32" width="2"  height="2" fill="#00AACC"/>
      <rect x="26" y="32" width="6"  height="2" fill="#006688"/>
      <rect x="32" y="32" width="2"  height="2" fill="#003355"/>

      <!-- Neck to shoulder transition y34-y38 -->
      <rect x="23" y="34" width="2"  height="2" fill="#00AACC"/>
      <rect x="25" y="34" width="8"  height="2" fill="#006688"/>
      <rect x="33" y="34" width="2"  height="2" fill="#003355"/>

      <rect x="21" y="36" width="2"  height="2" fill="#00AACC"/>
      <rect x="23" y="36" width="12" height="2" fill="#006688"/>
      <rect x="35" y="36" width="2"  height="2" fill="#003355"/>

    </g><!-- end idle-head -->
  </g><!-- end user-idle -->

  <!-- ============================================ -->
  <!-- LISTEN STATE                                 -->
  <!-- ============================================ -->
  <g class="user-listen">

    <!-- Collar detail y38-40 (hoodie neckline) -->
    <rect x="22" y="38" width="2"  height="2" fill="#001122"/>
    <rect x="24" y="38" width="10" height="2" fill="#001122"/>
    <rect x="34" y="38" width="2"  height="2" fill="#001122"/>
    <!-- Yellow pin -->
    <rect x="25" y="39" width="1"  height="1" fill="#FFCC00"/>

    <!-- Shoulders (static, same as idle) -->
    <rect x="19" y="40" width="2"  height="2" fill="#00AACC"/>
    <rect x="21" y="40" width="10" height="2" fill="#006688"/>
    <rect x="31" y="40" width="10" height="2" fill="#006688"/>
    <rect x="41" y="40" width="2"  height="2" fill="#003355"/>
    <rect x="43" y="42" width="2"  height="2" fill="#003355"/>

    <rect x="15" y="42" width="2"  height="2" fill="#00AACC"/>
    <rect x="17" y="42" width="12" height="2" fill="#006688"/>
    <rect x="29" y="42" width="12" height="2" fill="#006688"/>
    <rect x="41" y="42" width="2"  height="2" fill="#003355"/>

    <rect x="11" y="44" width="2"  height="2" fill="#00AACC"/>
    <rect x="13" y="44" width="14" height="2" fill="#006688"/>
    <rect x="27" y="44" width="14" height="2" fill="#006688"/>
    <rect x="41" y="44" width="4"  height="2" fill="#003355"/>
    <rect x="45" y="44" width="2"  height="2" fill="#001122"/>

    <rect x="7"  y="46" width="2"  height="2" fill="#001122"/>
    <rect x="9"  y="46" width="2"  height="2" fill="#00AACC"/>
    <rect x="11" y="46" width="16" height="2" fill="#006688"/>
    <rect x="27" y="46" width="16" height="2" fill="#006688"/>
    <rect x="43" y="46" width="4"  height="2" fill="#003355"/>
    <rect x="47" y="46" width="2"  height="2" fill="#001122"/>

    <rect x="5"  y="48" width="2"  height="2" fill="#001122"/>
    <rect x="7"  y="48" width="2"  height="2" fill="#00AACC"/>
    <rect x="9"  y="48" width="18" height="2" fill="#006688"/>
    <rect x="27" y="48" width="18" height="2" fill="#006688"/>
    <rect x="45" y="48" width="4"  height="2" fill="#003355"/>
    <rect x="49" y="48" width="2"  height="2" fill="#001122"/>

    <rect x="3"  y="50" width="2"  height="2" fill="#001122"/>
    <rect x="5"  y="50" width="2"  height="2" fill="#00AACC"/>
    <rect x="7"  y="50" width="20" height="2" fill="#006688"/>
    <rect x="27" y="50" width="20" height="2" fill="#006688"/>
    <rect x="47" y="50" width="4"  height="2" fill="#003355"/>
    <rect x="51" y="50" width="2"  height="2" fill="#001122"/>

    <rect x="1"  y="52" width="2"  height="2" fill="#001122"/>
    <rect x="3"  y="52" width="2"  height="2" fill="#00AACC"/>
    <rect x="5"  y="52" width="22" height="2" fill="#006688"/>
    <rect x="27" y="52" width="22" height="2" fill="#006688"/>
    <rect x="49" y="52" width="4"  height="2" fill="#003355"/>
    <rect x="53" y="52" width="2"  height="2" fill="#001122"/>

    <rect x="0"  y="54" width="2"  height="2" fill="#001122"/>
    <rect x="2"  y="54" width="2"  height="2" fill="#00AACC"/>
    <rect x="4"  y="54" width="23" height="10" fill="#006688"/>
    <rect x="27" y="54" width="24" height="10" fill="#006688"/>
    <rect x="51" y="54" width="4"  height="10" fill="#003355"/>
    <rect x="55" y="54" width="2"  height="10" fill="#001122"/>
    <rect x="0"  y="56" width="2"  height="8" fill="#001122"/>
    <rect x="2"  y="56" width="2"  height="8" fill="#00AACC"/>

    <!-- Animated head group for listen -->
    <g class="listen-head">

      <!-- === HAIR TOP === -->
      <rect x="21" y="2"  width="18" height="2" fill="#001122"/>
      <rect x="19" y="4"  width="2"  height="2" fill="#001122"/>
      <rect x="21" y="4"  width="6"  height="2" fill="#006688"/>
      <rect x="27" y="4"  width="6"  height="2" fill="#003355"/>
      <rect x="33" y="4"  width="6"  height="2" fill="#006688"/>
      <rect x="39" y="4"  width="2"  height="2" fill="#001122"/>

      <!-- === HAIR STRAND (same curved shape) === -->
      <rect x="24" y="6"  width="2"  height="1" fill="#006688"/>
      <rect x="23" y="7"  width="2"  height="1" fill="#006688"/>
      <rect x="22" y="8"  width="2"  height="1" fill="#006688"/>
      <rect x="21" y="9"  width="2"  height="1" fill="#003355"/>

      <!-- === HEAD ROWS === -->
      <rect x="17" y="6"  width="2"  height="2" fill="#001122"/>
      <rect x="19" y="6"  width="4"  height="2" fill="#00AACC"/>
      <rect x="25" y="6"  width="12" height="2" fill="#006688"/>
      <rect x="37" y="6"  width="2"  height="2" fill="#003355"/>
      <rect x="39" y="6"  width="2"  height="2" fill="#001122"/>

      <rect x="15" y="8"  width="2"  height="2" fill="#001122"/>
      <rect x="17" y="8"  width="4"  height="2" fill="#00AACC"/>
      <rect x="21" y="8"  width="16" height="2" fill="#006688"/>
      <rect x="37" y="8"  width="2"  height="2" fill="#003355"/>
      <rect x="39" y="8"  width="2"  height="2" fill="#001122"/>

      <rect x="15" y="10" width="2"  height="2" fill="#001122"/>
      <rect x="17" y="10" width="2"  height="2" fill="#00AACC"/>
      <rect x="19" y="10" width="18" height="2" fill="#006688"/>
      <rect x="37" y="10" width="2"  height="2" fill="#003355"/>
      <rect x="39" y="10" width="2"  height="2" fill="#001122"/>

      <rect x="15" y="12" width="2"  height="2" fill="#001122"/>
      <rect x="17" y="12" width="2"  height="2" fill="#00AACC"/>
      <rect x="19" y="12" width="18" height="2" fill="#006688"/>
      <rect x="37" y="12" width="2"  height="2" fill="#003355"/>
      <rect x="39" y="12" width="2"  height="2" fill="#001122"/>

      <!-- === GLASSES with GLINTS shifted 1px LEFT (looking at BAZ) === -->
      <rect x="18" y="13" width="8"  height="1" fill="#001122"/>
      <rect x="28" y="13" width="8"  height="1" fill="#001122"/>

      <!-- Left lens -->
      <rect x="18" y="14" width="7"  height="1" fill="#00AACC"/>
      <rect x="18" y="15" width="1"  height="1" fill="#00AACC"/>
      <rect x="19" y="15" width="5"  height="1" fill="#003355"/>
      <rect x="20" y="15" width="1"  height="1" fill="#EEFFEE"/><!-- GLINT shifted 1px left -->
      <rect x="21" y="15" width="1"  height="1" fill="#EEFFEE"/><!-- GLINT pixel 2 -->
      <rect x="24" y="15" width="1"  height="1" fill="#00AACC"/>
      <rect x="18" y="16" width="7"  height="1" fill="#00AACC"/>

      <!-- Bridge -->
      <rect x="25" y="14" width="2"  height="1" fill="#006688"/>
      <rect x="25" y="15" width="2"  height="1" fill="#006688"/>
      <rect x="25" y="16" width="2"  height="1" fill="#006688"/>

      <!-- Right lens -->
      <rect x="27" y="14" width="7"  height="1" fill="#00AACC"/>
      <rect x="27" y="15" width="1"  height="1" fill="#00AACC"/>
      <rect x="28" y="15" width="5"  height="1" fill="#003355"/>
      <rect x="29" y="15" width="1"  height="1" fill="#EEFFEE"/><!-- GLINT shifted 1px left -->
      <rect x="30" y="15" width="1"  height="1" fill="#EEFFEE"/><!-- GLINT pixel 2 -->
      <rect x="33" y="15" width="1"  height="1" fill="#00AACC"/>
      <rect x="27" y="16" width="7"  height="1" fill="#00AACC"/>

      <!-- Temple arms -->
      <rect x="16" y="14" width="2"  height="3" fill="#00AACC"/>
      <rect x="34" y="14" width="4"  height="3" fill="#003355"/>

      <!-- Head contour at glasses level -->
      <rect x="15" y="14" width="1"  height="3" fill="#001122"/>
      <rect x="38" y="14" width="2"  height="3" fill="#001122"/>

      <!-- === HEAD ROWS below glasses === -->
      <rect x="15" y="17" width="2"  height="1" fill="#001122"/>
      <rect x="17" y="17" width="2"  height="1" fill="#00AACC"/>
      <rect x="19" y="17" width="18" height="1" fill="#006688"/>
      <rect x="37" y="17" width="2"  height="1" fill="#003355"/>
      <rect x="39" y="17" width="2"  height="1" fill="#001122"/>

      <rect x="15" y="18" width="2"  height="2" fill="#001122"/>
      <rect x="17" y="18" width="2"  height="2" fill="#00AACC"/>
      <rect x="19" y="18" width="18" height="2" fill="#006688"/>
      <rect x="37" y="18" width="2"  height="2" fill="#003355"/>
      <rect x="39" y="18" width="2"  height="2" fill="#001122"/>

      <rect x="16" y="20" width="2"  height="2" fill="#001122"/>
      <rect x="18" y="20" width="2"  height="2" fill="#00AACC"/>
      <rect x="20" y="20" width="16" height="2" fill="#006688"/>
      <rect x="36" y="20" width="2"  height="2" fill="#003355"/>
      <rect x="38" y="20" width="2"  height="2" fill="#001122"/>

      <rect x="17" y="22" width="2"  height="2" fill="#001122"/>
      <rect x="19" y="22" width="2"  height="2" fill="#00AACC"/>
      <rect x="21" y="22" width="14" height="2" fill="#006688"/>
      <rect x="35" y="22" width="2"  height="2" fill="#003355"/>
      <rect x="37" y="22" width="2"  height="2" fill="#001122"/>

      <!-- === MOUTH LINE (listen: flat, same as idle) === -->
      <rect x="25" y="24" width="5"  height="1" fill="#003355"/>

      <!-- Head row y24 -->
      <rect x="19" y="24" width="2"  height="2" fill="#001122"/>
      <rect x="21" y="24" width="2"  height="2" fill="#00AACC"/>
      <rect x="23" y="24" width="2"  height="2" fill="#006688"/>
      <rect x="25" y="25" width="5"  height="1" fill="#006688"/>
      <rect x="30" y="24" width="3"  height="2" fill="#006688"/>
      <rect x="33" y="24" width="2"  height="2" fill="#003355"/>
      <rect x="35" y="24" width="2"  height="2" fill="#001122"/>

      <!-- Chin taper y26 -->
      <rect x="21" y="26" width="2"  height="2" fill="#001122"/>
      <rect x="23" y="26" width="2"  height="2" fill="#00AACC"/>
      <rect x="25" y="26" width="6"  height="2" fill="#006688"/>
      <rect x="31" y="26" width="2"  height="2" fill="#003355"/>
      <rect x="33" y="26" width="2"  height="2" fill="#001122"/>

      <!-- Chin point y28 -->
      <rect x="23" y="28" width="2"  height="2" fill="#001122"/>
      <rect x="25" y="28" width="6"  height="2" fill="#006688"/>
      <rect x="31" y="28" width="2"  height="2" fill="#001122"/>

      <!-- Neck -->
      <rect x="25" y="30" width="2"  height="2" fill="#00AACC"/>
      <rect x="27" y="30" width="4"  height="2" fill="#006688"/>
      <rect x="31" y="30" width="2"  height="2" fill="#003355"/>

      <rect x="24" y="32" width="2"  height="2" fill="#00AACC"/>
      <rect x="26" y="32" width="6"  height="2" fill="#006688"/>
      <rect x="32" y="32" width="2"  height="2" fill="#003355"/>

      <rect x="23" y="34" width="2"  height="2" fill="#00AACC"/>
      <rect x="25" y="34" width="8"  height="2" fill="#006688"/>
      <rect x="33" y="34" width="2"  height="2" fill="#003355"/>

      <rect x="21" y="36" width="2"  height="2" fill="#00AACC"/>
      <rect x="23" y="36" width="12" height="2" fill="#006688"/>
      <rect x="35" y="36" width="2"  height="2" fill="#003355"/>

    </g><!-- end listen-head -->
  </g><!-- end user-listen -->

</svg>