<svg xmlns="http://www.w3.org/2000/svg" viewBox="0 0 1600 1200" role="img" aria-label="Alternate retro CRT computer terminal frame">
  <defs>
    <linearGradient id="desk2" x1="0" x2="0" y1="0" y2="1">
      <stop offset="0" stop-color="#6b4f39"/>
      <stop offset="1" stop-color="#3d2b1e"/>
    </linearGradient>
    <linearGradient id="case2" x1="0" x2="1" y1="0" y2="1">
      <stop offset="0" stop-color="#d8ccb4"/>
      <stop offset="1" stop-color="#8f7b5d"/>
    </linearGradient>
  </defs>
  <rect width="1600" height="1200" fill="#0b0908"/>
  <rect y="900" width="1600" height="300" fill="url(#desk2)"/>
  <g transform="translate(250 80)">
    <rect x="120" y="60" width="860" height="720" rx="46" fill="url(#case2)" stroke="#64533d" stroke-width="10"/>
    <rect x="180" y="126" width="740" height="500" rx="28" fill="#3b3126" stroke="#1f1711" stroke-width="12"/>
    <rect x="226" y="168" width="648" height="412" rx="18" fill="#08130f" stroke="#121d17" stroke-width="8"/>
    <rect x="226" y="168" width="648" height="412" rx="18" fill="rgba(139,172,15,0.08)"/>
    <rect x="240" y="184" width="620" height="380" rx="14" fill="none" stroke="rgba(181,209,166,0.08)" stroke-width="6"/>
    <rect x="220" y="646" width="660" height="96" rx="12" fill="#ae9570"/>
    <circle cx="310" cy="694" r="18" fill="#5f4a2f"/>
    <rect x="390" y="678" width="206" height="34" rx="8" fill="#765f3d"/>
    <rect x="638" y="678" width="124" height="34" rx="8" fill="#765f3d"/>
    <rect x="452" y="756" width="188" height="72" rx="18" fill="#8d7857"/>
    <rect x="420" y="816" width="252" height="164" rx="12" fill="#9f8964"/>
    <rect x="728" y="816" width="292" height="164" rx="12" fill="#d9ccb5" stroke="#715f49" stroke-width="8"/>
    <g fill="#7b6749">
      <rect x="762" y="848" width="224" height="18" rx="4"/>
      <rect x="762" y="885" width="224" height="18" rx="4"/>
      <rect x="762" y="922" width="224" height="18" rx="4"/>
      <rect x="762" y="959" width="224" height="18" rx="4"/>
    </g>
  </g>
</svg>
